PathFileType	4	(X/Y/Z)	Patient4_TMGait_0pt4_02_right_04.trc.trc
DataRate	CameraRate	NumFrames	NumMarkers	Units	OrigDataRate	OrigDataStartFrame	OrigNumFrames
72.916666666667	72.916666666667	4	33	mm	72.916666666667	106	       141
Frame#	Time	Sacral			L.Shoulder			Chest			R.Shoulder			Neck			R.ASIS			L.ASIS			R.Thigh.Superior			R.Thigh.Lateral			R.Thigh.Inferior			R.Patella			L.Thigh.Superior			L.Thigh.Lateral			L.Thigh.Inferior			L.Patella			L.Shank.Superior			L.Shank.Lateral			L.Shank.Inferior			R.Shank.Superior			R.Shank.Lateral			R.Shank.Inferior			R.Heel			R.Midfoot.Superior			R.Midfoot.Lateral			R.Toe			L.Heel			L.Midfoot.Lateral			L.Midfoot.Superior			L.Toe			L.Elbow			L.Wrist			R.Elbow			R.Wrist			
		X1	Y1	Z1	X2	Y2	Z2	X3	Y3	Z3	X4	Y4	Z4	X5	Y5	Z5	X6	Y6	Z6	X7	Y7	Z7	X8	Y8	Z8	X9	Y9	Z9	X10	Y10	Z10	X11	Y11	Z11	X12	Y12	Z12	X13	Y13	Z13	X14	Y14	Z14	X15	Y15	Z15	X16	Y16	Z16	X17	Y17	Z17	X18	Y18	Z18	X19	Y19	Z19	X20	Y20	Z20	X21	Y21	Z21	X22	Y22	Z22	X23	Y23	Z23	X24	Y24	Z24	X25	Y25	Z25	X26	Y26	Z26	X27	Y27	Z27	X28	Y28	Z28	X29	Y29	Z29	X30	Y30	Z30	X31	Y31	Z31	X32	Y32	Z32	X33	Y33	Z33	

106	6.050000000000	841.046855129826	1008.011825785253	418.312308013111	1040.772719605006	1436.361051172642	229.566219030257	1129.083658138387	1369.633142189575	399.234972823127	1032.785346108538	1445.584083620380	565.241037055692	1012.435499958242	1500.053990415601	384.882816838625	1068.037140570679	955.374686922945	544.053017471868	1061.589888098812	964.603739595677	268.593859424221	1150.024579369500	780.103054915690	521.467234907545	1108.033192492845	663.143800155437	603.320881561078	1193.658876332039	618.725628231866	524.838088108496	1220.003275200186	522.275528723944	552.326058330558	1100.618474703421	748.066468803428	302.967087184708	1005.869569959533	634.994380762527	243.934152947364	1085.415374963607	554.895621908879	308.326450034491	1081.402436618950	486.621513640858	320.061214877969	1053.305837534150	415.001735348781	313.504965313068	959.764807789847	302.016708541463	265.476008100732	1006.434790061617	191.348130610988	340.661637390212	1173.449330909664	435.253873047528	566.478398578204	1081.687587751409	355.277502343476	636.466271490724	1110.538493949847	246.605704540909	592.079688753403	952.264386140961	108.886346860026	578.334894888027	1131.407212830945	123.873132342610	613.391271831887	1032.722367882051	80.821540907699	650.789205386850	1235.108806267147	46.607329513346	637.816285485543	876.261578949810	38.767236711908	389.949506895494	947.180841945425	35.321851238681	306.354606680865	1031.295328855570	95.920476209165	330.306071233817	1159.145994362923	43.537091321238	297.416964141442	1069.404947706845	1096.788236684381	85.209544859775	1239.811553019330	896.911508285308	110.621735073474	946.473579199612	1113.470651388244	694.175988568055	983.408697742037	857.145911726478	729.464953222800	
107	6.063714285714	839.993981822608	1008.492685878780	416.820233703813	1043.053052341667	1435.980107705585	229.345943362957	1129.184019236791	1369.258863609824	400.120363027447	1031.249924538762	1445.801235328582	564.851555254331	1012.893807501976	1499.962915656260	384.368357377883	1065.834273712193	955.244442315990	544.701350319619	1061.578851403197	964.416183013678	269.061840175814	1146.495670283244	779.306188809248	522.223003334916	1104.167619642344	663.106677836096	604.520510489115	1188.972504248966	617.888125031683	525.571576321413	1216.348126552675	524.002736777967	552.951982257734	1098.104396320087	747.374601893671	303.585723875411	1002.603814256884	635.112261019928	243.615181558770	1080.966663511262	554.328317123132	308.353702910566	1076.199404043605	486.227184535301	319.923904470275	1048.117211928754	414.842390218180	313.218434569329	954.362484321440	301.976132216338	265.078867196018	1000.961608294786	191.310062464321	340.458391761489	1174.743122787768	436.502328508200	567.629142048446	1088.695200923209	351.021398682577	638.098973826230	1124.513179014796	244.418087149128	593.574838569285	975.797734081071	96.853185874756	579.856513042237	1153.767435334906	122.657085323802	614.995327567194	1057.863212824086	73.648251083645	652.292038821512	1261.919964063121	51.870712441451	639.344685116826	870.721596278909	38.758854410101	389.913930017324	941.632599348907	35.268541631605	306.318812492437	1025.758412407149	95.896839752448	330.240185179149	1153.609429173236	43.526848289267	297.440865345462	1073.632618069810	1096.799677056060	84.833646546801	1245.859058667347	898.877412153727	113.128451468164	936.363655070996	1116.723070332213	694.079187383227	967.176841313709	860.188606621858	732.260708585986	
108	6.077428571429	839.020009938405	1008.850590188660	415.568879124301	1045.268050294274	1435.350197000176	229.292736913550	1129.355061683134	1368.703981532060	401.103706580653	1029.952363574445	1445.919935543259	564.607030735752	1013.443291123999	1499.709678793488	383.983344195869	1063.698347252656	954.828724269020	545.499181017674	1061.605385238112	964.157707022903	269.666147646989	1142.611758497359	777.942358576608	523.191640652603	1099.693409817990	662.613659366087	605.862408170753	1183.818119946073	616.526924551151	526.552817115241	1212.042893770777	525.260581053118	553.648398552535	1095.670563407253	746.659129729172	304.114198143334	999.371657203400	635.206272812012	243.348632234913	1076.605742983546	553.741790560595	308.333385732981	1071.107713110966	485.814362489887	319.739544924572	1043.012083926457	414.655949990938	312.928978714181	949.006469524426	301.942654199689	264.700751152794	995.515785391579	191.246221237783	340.236893702187	1175.470618556125	437.681848376599	568.840968813203	1095.505926655974	347.018590093947	639.785889194565	1138.175145861954	242.961902339712	595.035805083308	999.655448145257	86.191314019337	581.251296958595	1175.873941815308	122.498228862312	616.427928897663	1083.045674834423	67.771824089480	653.619655463364	1288.076239156662	58.298692277303	640.637494173698	865.189746920359	38.751881539199	389.872662780423	936.088457298823	35.212972190968	306.281641598912	1020.226216810715	95.863567175929	330.171407796649	1148.077065961918	43.503614049780	297.462777922538	1077.656763987480	1096.496915677547	84.742741699999	1251.558354214129	900.496386016138	115.905629041294	926.800028607948	1119.909784638492	693.836908053310	952.054120546156	863.286988421030	734.454275539908	
109	6.091142857143	838.133038524222	1009.082272208617	414.570174293666	1047.375088806138	1434.494963527610	229.405075669583	1129.579301725523	1367.992030545978	402.175772037154	1028.880710145852	1445.946635587507	564.515422676609	1014.065563020764	1499.309252029047	383.733557215910	1061.652741620297	954.159264797406	546.438755091197	1061.699867515078	963.867467783268	270.399379700002	1138.479585755701	776.103372477175	524.375735911955	1094.747335743086	661.703686003229	607.311159093618	1178.390621995690	614.741700926811	527.776129055581	1207.279189307062	526.086442420506	554.407066719856	1093.355262066513	745.927020782062	304.581460122549	996.200110302564	635.277985378832	243.158968912291	1072.352415825277	553.137296316988	308.301300300259	1066.148903997778	485.384116113775	319.547115850284	1038.008713037308	414.443894233194	312.667897385082	943.715962757594	301.922446796854	264.368139868252	990.102546619788	191.156970887944	340.017025673755	1175.690345370389	438.808448191044	570.086496523079	1102.019222578825	343.380205755071	641.474651907395	1151.273827096860	242.268265042584	596.416499098385	1023.300801409626	77.119734385686	582.466591402108	1197.308156933107	123.367170020717	617.650483293529	1107.740307768270	63.271854070939	654.713425981014	1313.092958692706	65.668316788276	641.626148082905	859.665276003634	38.747612949240	389.827305081253	930.549478564470	35.157885414233	306.244564812659	1014.700873299424	95.820689613817	330.104702805402	1142.550324514015	43.465619553501	297.482040081790	1081.483248244399	1095.885742351081	84.973860907387	1256.907596339614	901.748002613631	118.923032382304	917.888174566539	1122.968975578277	693.459798076693	938.088655694784	866.319326160711	736.075431228282	
